<svg xmlns="http://www.w3.org/2000/svg" viewBox="0 0 1084.21 1923"><defs><style>.cls-1,.cls-6,.cls-7,.cls-8{fill:none;}.cls-1{stroke:#3d18c4;}.cls-1,.cls-10,.cls-2,.cls-6,.cls-7,.cls-8{stroke-miterlimit:10;}.cls-2,.cls-5{fill:#fff;}.cls-2{stroke:#fff;}.cls-10,.cls-2{stroke-width:3px;}.cls-3{fill:#e22323;}.cls-4{fill:#f0f;}.cls-10,.cls-6,.cls-7,.cls-8{stroke:#000;}.cls-6{stroke-width:5px;}.cls-7{stroke-width:4px;}.cls-10,.cls-9{fill:#7e8ec1;}</style></defs><title>cold</title><g id="background"><polygon class="cls-1" points="317.89 818.25 218.08 1021.03 416.92 1631.87 496.02 1082.05 394.69 788.62 317.89 818.25"/><polygon class="cls-2" points="1.5 892.66 317.89 818.25 394.69 788.62 1082.7 825.19 1081.5 1.5 1.5 1.5 1.5 892.66"/><path class="cls-3" d="M-265.32,553.81" transform="translate(1.5 1.5)"/><polygon class="cls-2" points="1.5 892.66 317.89 818.25 218.08 1021.03 416.92 1631.87 496.02 1082.05 394.69 788.62 1082.7 825.19 1082.7 1921.5 1.5 1921.5 1.5 892.66"/></g><g id="shirt"><polygon class="cls-4" points="218.08 573.37 238.23 627.63 251.29 605.47 308.81 788.62 409.89 748.72 507.85 491.52 518.94 522.06 547.99 480.18 507.6 420.72 375.23 522.06 246.3 522.06 218.08 573.37"/></g><g id="hair"><polygon class="cls-5" points="281.29 351.25 425.57 264.03 530.86 200.38 258.51 310.45 281.29 351.25"/><path d="M276.72,344l5.51-3.48c19.75-12.48,39.44-24.79,59.25-36.91s39.75-24.06,60-36L526.71,194.5l4.56,9.12-274,106,.35-1Q267.08,326.15,276.72,344Zm6.39,11.51-3.32-5.8c-7.64-13.37-15.51-26.82-23.39-40.46l-.39-.68.74-.31L527.44,194.13l4.56,9.12-124.3,77.67q-32.06,19.88-64.81,39.49C323,332.29,303,344,283.11,355.56Z" transform="translate(1.5 1.5)"/></g><g id="BODy"><polygon class="cls-5" points="375.23 522.06 425.57 264.03 288.2 347.07 375.23 522.06"/><path d="M371.62,516.18l.84-5,10.45-62.89c3.5-20.84,7.07-41.53,10.84-62.18s7.75-41.26,11.93-62,8.54-41.6,13-62.61l8.26,5.77L288.27,348.17l1.14-3.94c13.85,29,27.57,58.05,41.51,87.5C344.18,459.73,357.78,488,371.62,516.18Zm4.45,9-2.34-4.64c-14.43-28.67-29.15-57.27-44.22-86.16S299.15,376.3,284,346.92l-1.26-2.44,2.4-1.5,136.08-85.18,10.48-6.56-2.22,12.33q-5.93,33-12.19,66.4c-4.21,22.27-8.61,44.66-13.24,67s-9.44,44.68-14.33,66.84Z" transform="translate(1.5 1.5)"/><path d="M414.69,1633l-50.76-148.72q-26.22-76.85-52.25-154.23T260.56,1175.2q-25.2-77.36-49.82-154.36l-.78-2.43,1.12-2.22L312.43,815.34l.86-1.71,1.74-.68,76.48-30,4.44-1.74,1.52,4.47,99.8,293,.23.68-.1.68-82,548Zm1.39-9.65,75.56-544.09.13,1.37-102.87-292,6,2.72-76.16,30.83,2.6-2.4-99.24,201.91.34-4.64q25,75.3,49.6,150.19T320.32,1317q23.8,74.92,47.18,150.32l47.12,151.29Z" transform="translate(1.5 1.5)"/><path d="M600.52,760.47l-24.69-62.38q-13.35-33.72-26.65-67.93t-26-68.61q-12.74-34.36-25-68.57l16.26.13-114,296.77-1.23,3.2-3.14,1.24-76.4,30.21-7.55,3-2.4-7.71L243.25,606l12.44,1.43L164.88,760.52l.51-5.33,75.32,214.87,1.4,4-3.4,2.48-94.37,68.84-8,5.83-.57-9.84-3.15-54-.27-4.61,4.52-.84L229,964.68l-3,8L90.31,797.87l-1.77-2.29,1.39-2.51L241.77,518.9l1-1.8h2l128.94.38-1.87.63,132.66-101,2.19-1.67,1.53,2.27,97.7,144.72-3.29-.21L785.18,356.63l5.8-6.54L787.3,358,694.78,557.1l-92,198.53Zm4.29-9.31L694.12,556,785,356.94l2.12,1.38L605.78,565,604,567l-1.52-2.22L504,420.68l3.72.6L375.61,523l-.82.63h-1.05L244.8,524l3-1.79L97.58,797.29l-.38-4.8,136.64,174,5.05,6.44-8.06,1.55-92,17.66,4.25-5.46,3.47,54-8.56-4,94-69.32-2,6.48L153.46,759.42l-1-2.76,1.5-2.56,89.91-153.6,7.77-13.28,4.67,14.71L324,815.3l-9.94-4.72,76.23-30.65-4.37,4.44,112.3-297.43,8.23-21.8,8,21.92q11.81,32.23,23.2,64.24t22.22,64.2c7.26,21.48,14.39,43.09,21.56,64.88l21.67,65.77Z" transform="translate(1.5 1.5)"/><path d="M894.6,341.51l-5.2,1.1c-7.61,1.61-15.13,3.2-22.57,4.68s-14.82,2.86-22.23,4-14.89,2.2-22.54,3.08-15.45,1.67-23.41,2.42l.83-9.95,71.92,26.26-2,.66c4.52-5.8,9.15-11.59,13.89-17.58C887.08,351.47,890.83,346.52,894.6,341.51Zm6.05-8.31-3.12,4.49c-4.2,6-8.3,12.2-12.45,18.61s-8.41,13-12.78,19.57l-.67,1-1.3-.35-73.94-19.87-21.64-5.82,22.47-4.13c8.64-1.59,17.43-3.16,26.39-4.62s18.08-2.8,27.26-4,18.41-2.14,27.57-3C885.89,334.42,893.3,333.81,900.65,333.2Z" transform="translate(1.5 1.5)"/><path d="M415.35,1631.91l-2.59,5.25c-2.66,5.39-5.21,10.72-7.7,15.89s-4.94,10.17-7.53,15-5.35,9.51-8.35,14.2-6.23,9.42-9.6,14.24l-.43-7.8,39.59,52.81-7.57,2.68c.69-18.68,1.65-37.43,2.55-56.79C414.57,1669.28,415.13,1650.64,415.35,1631.91Zm0-9.54.05,5.67c.18,18.68.79,37.43,1.7,56.79s1.86,39.31,2.55,59.35l.41,11.84-8-9.16-43.35-49.77-3-3.45,2.58-4.34c3.54-6,7.23-12.06,11.14-18.18s8.06-12.24,12.38-18.22,8.79-11.8,13.21-17.43Z" transform="translate(1.5 1.5)"/><path d="M503.8,1705.93l-13.93-1.24c-6.18-.56-12.54-1.2-18.94-2.08s-12.79-2-19-3.27-12.23-2.72-18.07-4.18l-4.23-1.06-.94-3.72-14.88-58.76-3.81-15L421,1627c13.62,13,27,26.08,39.94,38.74s25.59,24.66,38.52,36.26Zm-6.87-6c-13.4-11.53-27-22.72-40.34-33.28-14.21-11.23-27.94-22-41.45-32.93l7.18-4.59,19.57,57.37-5.17-4.77c4.85.81,9.52,1.64,14,2.62a135.4,135.4,0,0,1,13.09,3.53c4.3,1.39,8.63,3,13.14,4.72s9.19,3.48,14,5.2Z" transform="translate(1.5 1.5)"/><text x="1.5" y="1.5"></text><path class="cls-6" d="M425.22,1560.08c67.7,23.53,114,71.13,114,126,0,78.25-94.08,141.69-210.12,141.69S119,1764.36,119,1686.11,213,1544.42,329.09,1544.42a305.26,305.26,0,0,1,61,6.07" transform="translate(1.5 1.5)"/><path class="cls-7" d="M395.38,1566.65" transform="translate(1.5 1.5)"/><line class="cls-8" x1="422.18" y1="1593.12" x2="441.21" y2="1567.12"/><line class="cls-8" x1="255.52" y1="1820.76" x2="410.32" y2="1609.31"/><line class="cls-8" x1="405.71" y1="1595.2" x2="243.44" y2="1816.86"/><path class="cls-8" d="M427.57,1561.8" transform="translate(1.5 1.5)"/><line class="cls-8" x1="540.82" y1="1696.39" x2="469.38" y2="1793.98"/><line class="cls-8" x1="541.3" y1="1675.32" x2="445.35" y2="1806.4"/><line class="cls-8" x1="537.95" y1="1659.49" x2="424.58" y2="1814.36"/><line class="cls-8" x1="494.76" y1="1698.08" x2="533.23" y2="1645.53"/><line class="cls-8" x1="405.49" y1="1820.03" x2="492.13" y2="1701.67"/><line class="cls-8" x1="485.68" y1="1690.08" x2="526.73" y2="1633.99"/><line class="cls-8" x1="387.63" y1="1824.01" x2="479.2" y2="1698.92"/><line class="cls-8" x1="476.59" y1="1682.08" x2="519.16" y2="1623.93"/><line class="cls-8" x1="370.71" y1="1826.71" x2="466.27" y2="1696.18"/><line class="cls-8" x1="467.51" y1="1674.08" x2="511.21" y2="1614.37"/><line class="cls-8" x1="354.54" y1="1828.38" x2="453.33" y2="1693.44"/><line class="cls-8" x1="458.42" y1="1666.08" x2="502.54" y2="1605.81"/><line class="cls-8" x1="416.92" y1="1722.76" x2="440.4" y2="1690.7"/><line class="cls-8" x1="338.59" y1="1829.76" x2="408.12" y2="1734.79"/><line class="cls-8" x1="449.34" y1="1658.08" x2="493.41" y2="1597.88"/><line class="cls-8" x1="416.92" y1="1702.35" x2="433.69" y2="1679.44"/><line class="cls-8" x1="324.04" y1="1829.22" x2="400.28" y2="1725.09"/><line class="cls-8" x1="440.25" y1="1650.08" x2="483.74" y2="1590.66"/><line class="cls-8" x1="416.92" y1="1681.94" x2="429.38" y2="1664.92"/><line class="cls-8" x1="309.72" y1="1828.38" x2="392.44" y2="1715.39"/><line class="cls-8" x1="431.16" y1="1642.08" x2="473.71" y2="1583.96"/><line class="cls-8" x1="384.59" y1="1705.69" x2="294.4" y2="1828.88"/><line class="cls-8" x1="425.13" y1="1650.32" x2="416.92" y2="1661.53"/><line class="cls-8" x1="422.14" y1="1633.99" x2="463.03" y2="1578.14"/><line class="cls-8" x1="281.77" y1="1825.73" x2="376.75" y2="1695.99"/><line class="cls-8" x1="418.51" y1="1618.54" x2="452.2" y2="1572.52"/><line class="cls-8" x1="268.22" y1="1823.83" x2="414.93" y2="1623.43"/><line class="cls-8" x1="402.51" y1="1579.17" x2="231.61" y2="1812.61"/><line class="cls-8" x1="396.07" y1="1567.55" x2="219.98" y2="1808.09"/><line class="cls-8" x1="392.2" y1="1552.42" x2="208.73" y2="1803.04"/><line class="cls-8" x1="379.23" y1="1549.73" x2="197.78" y2="1797.58"/><line class="cls-8" x1="365.3" y1="1548.35" x2="187.43" y2="1791.31"/><line class="cls-8" x1="351.62" y1="1546.62" x2="177.44" y2="1784.55"/><line class="cls-8" x1="337.19" y1="1545.92" x2="167.85" y2="1777.24"/><line class="cls-8" x1="322.25" y1="1545.92" x2="158.79" y2="1769.2"/><line class="cls-8" x1="306.81" y1="1546.6" x2="150.29" y2="1760.4"/><line class="cls-8" x1="290.27" y1="1548.78" x2="141.71" y2="1751.71"/><line class="cls-8" x1="273.52" y1="1551.25" x2="135.32" y2="1740.03"/><line class="cls-8" x1="255.69" y1="1555.2" x2="127.83" y2="1729.85"/><line class="cls-8" x1="236.2" y1="1561.4" x2="124.53" y2="1713.95"/><line class="cls-8" x1="215.74" y1="1568.94" x2="121.89" y2="1697.14"/><line class="cls-8" x1="191.81" y1="1581.22" x2="122.34" y2="1676.11"/><line class="cls-8" x1="162.1" y1="1601.39" x2="131.76" y2="1642.84"/></g><g id="puffer_jacket" data-name="puffer jacket"><polygon class="cls-9" points="412.98 484.26 404.15 495.81 380.88 513.52 387.31 484.94 396.39 478.78 406.87 482.19 412.98 484.26"/><polygon class="cls-9" points="343.86 490.36 357.31 486.84 373.53 518.64 334.82 518.55 332.85 511.98 331.08 502.51 343.86 490.36"/><path class="cls-10" d="M205.32,699.88s25.12-3.37,19.2-28.16c13,2.72,20.83-18.85,20.83-18.85-10.77,16.35,5.12,27.29,5.12,27.29-15,17.87,7.77,29.26,7.77,29.26-10.62,19.42,10.57,29.32,10.57,29.32-15.52,24.76,14.24,37.81,14.24,37.81-11,30.32,22.26,36.64,22.26,36.64l50.23-19.26V548.11c-54.61-44.91-1.69-63.82-1.69-63.82l-9-17.09c-31.2,3.66-31.45,36.46-31.45,36.46-36.69-31.63-63.92,7.17-63.92,7.17-39.49.46-39.67,44.86-39.67,44.86-32.05,7-24.16,43.2-24.16,43.2-29.73,7-22.76,39.49-22.76,39.49-28.8,4.18-20.9,37.16-20.9,37.16-29.27,4.18-22.76,39-22.76,39-26.48,3.72-15.79,31.12-15.79,31.12C79.8,751.25,92.38,780.5,92.38,780.5c-23.83,22.83,3.53,40.35,3.53,40.35-2.15,24.67,23.42,23.32,23.42,23.32-7.39,24.84,16.46,30.31,16.46,30.31-7.79,23.38,25.44,23.59,25.44,23.59C151.14,922.37,183,933.15,183,933.15l41.54-22.72c16.55-22.95-10.87-35.3-10.87-35.3,10.7-24.25-11.47-31.13-11.47-31.13,7.69-24.25-9.83-29.9-9.83-29.9,9.78-21.11-9.42-29.9-9.42-29.9,7.69-14.78-6.7-26.56-6.7-26.56,19.1-6.31,12.88-24.5,12.88-24.5S211.43,723.2,205.32,699.88Z" transform="translate(1.5 1.5)"/><path class="cls-10" d="M745.73,393.89c-19.44-1.36-23.06,25.32-23.06,25.32-27.58,2.71-25.45,29.84-25.45,29.84-31.89-2.13-28.91,35.62-28.91,35.62-30.61-4.94-32.58,33.57-32.58,33.57-29.62,0-31.6,36-31.6,36,2.47-33.73-28.08-43.76-28.08-43.76,7-38.75-22.92-39.25-22.92-39.25,8.54-36.24-24.36-35.32-24.36-35.32-25.22-51.34-66.83,4.33-66.83,4.33C417,422.84,416,471.45,416,471.45c-15.49-13.85-26-8.69-26-8.69l-4.14,18.94s61.31,23.65-4.17,63.81L355.55,793.93l56.1-13.35c21-7.55,12.42-30.67,12.42-30.67,29.06-13,18.77-42.63,18.77-42.63,27-12.48,18.72-45.75,18.72-45.75,33.79-14.56,18.72-49.39,18.72-49.39,24.23-10,19.76-53.55,19.76-53.55-1.56,22.36,24.7,21.26,24.7,21.26-8,25.8,15,33.31,15,33.31-11,29.55,13.38,35.65,13.38,35.65-11,26.27,11.95,34.72,11.95,34.72-7,24.77,13.88,34.29,13.88,34.29-8.54,26.07,11.45,33.38,11.45,33.38,9.9,27.32,20.47-1.84,20.47-1.84,26.77-7.43,17.16-34.2,17.16-34.2,24.59-12,14.57-38.8,14.57-38.8,29-11.09,18.66-37.42,18.66-37.42s19.07-10.47,14-32.49c0,0,17.72-12.62,13.16-30.08,0,0,16.92-8.86,13.16-27.93,0,0,20.6-7.4,15.78-32.43,0,0,21.17-13.8,17.32-34.33,0,0,21.49-13.15,17-36.25,0,0,26-16.68,17.65-39.78Z" transform="translate(1.5 1.5)"/></g></svg>