<svg xmlns="http://www.w3.org/2000/svg" viewBox="0 0 1081.2 1920"><defs><style>.cls-1,.cls-4,.cls-5,.cls-6{fill:none;stroke-miterlimit:10;}.cls-1{stroke:#3d18c4;}.cls-2{fill:#fff;}.cls-3{fill:#e22323;}.cls-4,.cls-5,.cls-6{stroke:#000;}.cls-4{stroke-width:5px;}.cls-5{stroke-width:4px;}</style></defs><title>weatherTEST</title><g id="Layer_7" data-name="Layer 7"><polygon class="cls-1" points="316.39 816.75 216.58 1019.53 415.42 1630.37 494.52 1080.55 393.19 787.12 316.39 816.75"/><polygon class="cls-2" points="0 891.16 316.39 816.75 393.19 787.12 1081.2 823.69 1080 0 0 0 0 891.16"/><path class="cls-3" d="M-265.32,553.81"/><polygon class="cls-2" points="0 891.16 316.39 816.75 216.58 1019.53 415.42 1630.37 494.52 1080.55 393.19 787.12 1081.2 823.69 1081.2 1920 0 1920 0 891.16"/></g><g id="hair"><polygon class="cls-2" points="279.79 349.75 424.07 262.53 529.36 198.88 257.01 308.95 279.79 349.75"/><path d="M276.72,344l5.51-3.48c19.75-12.48,39.44-24.79,59.25-36.91s39.75-24.06,60-36L526.71,194.5l4.56,9.12-274,106,.35-1Q267.08,326.15,276.72,344Zm6.39,11.51-3.32-5.8c-7.64-13.37-15.51-26.82-23.39-40.46l-.39-.68.74-.31L527.44,194.13l4.56,9.12-124.3,77.67q-32.06,19.88-64.81,39.49C323,332.29,303,344,283.11,355.56Z"/></g><g id="BODy"><polygon class="cls-2" points="373.73 520.56 424.07 262.53 286.7 345.57 373.73 520.56"/><path d="M371.62,516.18l.84-5,10.45-62.89c3.5-20.84,7.07-41.53,10.84-62.18s7.75-41.26,11.93-62,8.54-41.6,13-62.61l8.26,5.77L288.27,348.17l1.14-3.94c13.85,29,27.57,58.05,41.51,87.5C344.18,459.73,357.78,488,371.62,516.18Zm4.45,9-2.34-4.64c-14.43-28.67-29.15-57.27-44.22-86.16S299.15,376.3,284,346.92l-1.26-2.44,2.4-1.5,136.08-85.18,10.48-6.56-2.22,12.33q-5.93,33-12.19,66.4c-4.21,22.27-8.61,44.66-13.24,67s-9.44,44.68-14.33,66.84Z"/><path d="M414.69,1633l-50.76-148.72q-26.22-76.85-52.25-154.23T260.56,1175.2q-25.2-77.36-49.82-154.36l-.78-2.43,1.12-2.22L312.43,815.34l.86-1.71,1.74-.68,76.48-30,4.44-1.74,1.52,4.47,99.8,293,.23.68-.1.68-82,548Zm1.39-9.65,75.56-544.09.13,1.37-102.87-292,6,2.72-76.16,30.83,2.6-2.4-99.24,201.91.34-4.64q25,75.3,49.6,150.19T320.32,1317q23.8,74.92,47.18,150.32l47.12,151.29Z"/><path d="M600.52,760.47l-24.69-62.38q-13.35-33.72-26.65-67.93t-26-68.61q-12.74-34.36-25-68.57l16.26.13-114,296.77-1.23,3.2-3.14,1.24-76.4,30.21-7.55,3-2.4-7.71L243.25,606l12.44,1.43L164.88,760.52l.51-5.33,75.32,214.87,1.4,4-3.4,2.48-94.37,68.84-8,5.83-.57-9.84-3.15-54-.27-4.61,4.52-.84L229,964.68l-3,8L90.31,797.87l-1.77-2.29,1.39-2.51L241.77,518.9l1-1.8h2l128.94.38-1.87.63,132.66-101,2.19-1.67,1.53,2.27,97.7,144.72-3.29-.21L785.18,356.63l5.8-6.54L787.3,358,694.78,557.1l-92,198.53Zm4.29-9.31L694.12,556,785,356.94l2.12,1.38L605.78,565,604,567l-1.52-2.22L504,420.68l3.72.6L375.61,523l-.82.63h-1.05L244.8,524l3-1.79L97.58,797.29l-.38-4.8,136.64,174,5.05,6.44-8.06,1.55-92,17.66,4.25-5.46,3.47,54-8.56-4,94-69.32-2,6.48L153.46,759.42l-1-2.76,1.5-2.56,89.91-153.6,7.77-13.28,4.67,14.71L324,815.3l-9.94-4.72,76.23-30.65-4.37,4.44,112.3-297.43,8.23-21.8,8,21.92q11.81,32.23,23.2,64.24t22.22,64.2c7.26,21.48,14.39,43.09,21.56,64.88l21.67,65.77Z"/><path d="M894.6,341.51l-5.2,1.1c-7.61,1.61-15.13,3.2-22.57,4.68s-14.82,2.86-22.23,4-14.89,2.2-22.54,3.08-15.45,1.67-23.41,2.42l.83-9.95,71.92,26.26-2,.66c4.52-5.8,9.15-11.59,13.89-17.58C887.08,351.47,890.83,346.52,894.6,341.51Zm6.05-8.31-3.12,4.49c-4.2,6-8.3,12.2-12.45,18.61s-8.41,13-12.78,19.57l-.67,1-1.3-.35-73.94-19.87-21.64-5.82,22.47-4.13c8.64-1.59,17.43-3.16,26.39-4.62s18.08-2.8,27.26-4,18.41-2.14,27.57-3C885.89,334.42,893.3,333.81,900.65,333.2Z"/><path d="M415.35,1631.91l-2.59,5.25c-2.66,5.39-5.21,10.72-7.7,15.89s-4.94,10.17-7.53,15-5.35,9.51-8.35,14.2-6.23,9.42-9.6,14.24l-.43-7.8,39.59,52.81-7.57,2.68c.69-18.68,1.65-37.43,2.55-56.79C414.57,1669.28,415.13,1650.64,415.35,1631.91Zm0-9.54.05,5.67c.18,18.68.79,37.43,1.7,56.79s1.86,39.31,2.55,59.35l.41,11.84-8-9.16-43.35-49.77-3-3.45,2.58-4.34c3.54-6,7.23-12.06,11.14-18.18s8.06-12.24,12.38-18.22,8.79-11.8,13.21-17.43Z"/><path d="M503.8,1705.93l-13.93-1.24c-6.18-.56-12.54-1.2-18.94-2.08s-12.79-2-19-3.27-12.23-2.72-18.07-4.18l-4.23-1.06-.94-3.72-14.88-58.76-3.81-15L421,1627c13.62,13,27,26.08,39.94,38.74s25.59,24.66,38.52,36.26Zm-6.87-6c-13.4-11.53-27-22.72-40.34-33.28-14.21-11.23-27.94-22-41.45-32.93l7.18-4.59,19.57,57.37-5.17-4.77c4.85.81,9.52,1.64,14,2.62a135.4,135.4,0,0,1,13.09,3.53c4.3,1.39,8.63,3,13.14,4.72s9.19,3.48,14,5.2Z"/><text></text><path class="cls-4" d="M425.22,1560.08c67.7,23.53,114,71.13,114,126,0,78.25-94.08,141.69-210.12,141.69S119,1764.36,119,1686.11,213,1544.42,329.09,1544.42a305.26,305.26,0,0,1,61,6.07"/><path class="cls-5" d="M395.38,1566.65"/><line class="cls-6" x1="420.68" y1="1591.62" x2="439.71" y2="1565.62"/><line class="cls-6" x1="254.02" y1="1819.26" x2="408.82" y2="1607.81"/><line class="cls-6" x1="404.21" y1="1593.7" x2="241.94" y2="1815.36"/><path class="cls-6" d="M427.57,1561.8"/><line class="cls-6" x1="539.32" y1="1694.89" x2="467.88" y2="1792.48"/><line class="cls-6" x1="539.8" y1="1673.82" x2="443.85" y2="1804.9"/><line class="cls-6" x1="536.45" y1="1657.99" x2="423.08" y2="1812.86"/><line class="cls-6" x1="493.26" y1="1696.58" x2="531.73" y2="1644.03"/><line class="cls-6" x1="403.99" y1="1818.53" x2="490.63" y2="1700.17"/><line class="cls-6" x1="484.18" y1="1688.58" x2="525.23" y2="1632.49"/><line class="cls-6" x1="386.13" y1="1822.51" x2="477.7" y2="1697.42"/><line class="cls-6" x1="475.09" y1="1680.58" x2="517.66" y2="1622.43"/><line class="cls-6" x1="369.21" y1="1825.21" x2="464.77" y2="1694.68"/><line class="cls-6" x1="466.01" y1="1672.58" x2="509.71" y2="1612.87"/><line class="cls-6" x1="353.04" y1="1826.88" x2="451.83" y2="1691.94"/><line class="cls-6" x1="456.92" y1="1664.58" x2="501.04" y2="1604.31"/><line class="cls-6" x1="415.42" y1="1721.26" x2="438.9" y2="1689.2"/><line class="cls-6" x1="337.09" y1="1828.26" x2="406.62" y2="1733.29"/><line class="cls-6" x1="447.84" y1="1656.58" x2="491.91" y2="1596.38"/><line class="cls-6" x1="415.42" y1="1700.85" x2="432.19" y2="1677.94"/><line class="cls-6" x1="322.54" y1="1827.72" x2="398.78" y2="1723.59"/><line class="cls-6" x1="438.75" y1="1648.58" x2="482.24" y2="1589.16"/><line class="cls-6" x1="415.42" y1="1680.44" x2="427.88" y2="1663.42"/><line class="cls-6" x1="308.22" y1="1826.88" x2="390.94" y2="1713.89"/><line class="cls-6" x1="429.66" y1="1640.58" x2="472.21" y2="1582.46"/><line class="cls-6" x1="383.09" y1="1704.19" x2="292.9" y2="1827.38"/><line class="cls-6" x1="423.63" y1="1648.82" x2="415.42" y2="1660.03"/><line class="cls-6" x1="420.64" y1="1632.49" x2="461.53" y2="1576.64"/><line class="cls-6" x1="280.27" y1="1824.23" x2="375.25" y2="1694.49"/><line class="cls-6" x1="417.01" y1="1617.04" x2="450.7" y2="1571.02"/><line class="cls-6" x1="266.72" y1="1822.33" x2="413.43" y2="1621.93"/><line class="cls-6" x1="401.01" y1="1577.67" x2="230.11" y2="1811.11"/><line class="cls-6" x1="394.57" y1="1566.05" x2="218.48" y2="1806.59"/><line class="cls-6" x1="390.7" y1="1550.92" x2="207.23" y2="1801.54"/><line class="cls-6" x1="377.73" y1="1548.23" x2="196.28" y2="1796.08"/><line class="cls-6" x1="363.8" y1="1546.85" x2="185.93" y2="1789.81"/><line class="cls-6" x1="350.12" y1="1545.12" x2="175.94" y2="1783.05"/><line class="cls-6" x1="335.69" y1="1544.42" x2="166.35" y2="1775.74"/><line class="cls-6" x1="320.75" y1="1544.42" x2="157.29" y2="1767.7"/><line class="cls-6" x1="305.31" y1="1545.1" x2="148.79" y2="1758.9"/><line class="cls-6" x1="288.77" y1="1547.28" x2="140.21" y2="1750.21"/><line class="cls-6" x1="272.02" y1="1549.75" x2="133.82" y2="1738.53"/><line class="cls-6" x1="254.19" y1="1553.7" x2="126.33" y2="1728.35"/><line class="cls-6" x1="234.7" y1="1559.9" x2="123.03" y2="1712.45"/><line class="cls-6" x1="214.24" y1="1567.44" x2="120.39" y2="1695.64"/><line class="cls-6" x1="190.31" y1="1579.72" x2="120.84" y2="1674.61"/><line class="cls-6" x1="160.6" y1="1599.89" x2="130.26" y2="1641.34"/></g></svg>